<svg xmlns="http://www.w3.org/2000/svg" viewBox="0 0 175.66 145.79"><defs><style>.cls-1,.cls-8{font-size:44px;}.cls-1,.cls-3,.cls-8{fill:#2b67ac;}.cls-1{font-family:Roboto-Black, Roboto;}.cls-2{letter-spacing:0.01em;}.cls-4{fill:#9abde4;}.cls-5{fill:#ed1c24;}.cls-6{fill:#9f1d20;}.cls-7{fill:#7f1820;}.cls-8{font-family:RobotoCondensed-Light, Roboto Condensed;}.cls-9{letter-spacing:0.01em;}</style></defs><title>Asset 3</title><g id="Layer_2" data-name="Layer 2"><g id="Layer_1-2" data-name="Layer 1"><text class="cls-1" transform="translate(0 133.87)">C<tspan class="cls-2" x="28.88" y="0">H</tspan><tspan x="60.18" y="0">ANGE</tspan></text><path class="cls-3" d="M25.9,70.63a3.54,3.54,0,0,1,.46,0L31,38.12,33.81,58a11.08,11.08,0,0,1,6.46-2.88l.73,0L43.24,36l4,7.93L51.33,36l1.94,17.24A10.86,10.86,0,0,1,54.8,53a11,11,0,0,1,6.43,1.34l2.32-16.21,2.94,20.5a3.54,3.54,0,0,1,.47-.07,5.35,5.35,0,0,1,4.37,1.62,5.35,5.35,0,0,1,9.3,3.09c0,.12,0,.24,0,.35l.35,0a5.42,5.42,0,0,1,3.35.8A38.54,38.54,0,1,0,17.66,75.62,11.06,11.06,0,0,1,25.9,70.63Z"/><path class="cls-4" d="M17.65,75.63a11,11,0,0,1,8.25-5,3.54,3.54,0,0,1,.46,0l2.46-17.29a12.58,12.58,0,0,0-3.75,9.55A11.09,11.09,0,0,0,19,69.14a11,11,0,0,0-2.76-.1,11.3,11.3,0,0,0-2.42.5"/><path class="cls-4" d="M40.27,55.15l.73,0,.56-4.8a12.65,12.65,0,0,0-8.8.37L33.81,58A11.08,11.08,0,0,1,40.27,55.15Z"/><path class="cls-4" d="M54.8,53a11,11,0,0,1,6.43,1.34l.88-6.2a12.47,12.47,0,0,0-6.8-1.27,12.69,12.69,0,0,0-2.7.56l.66,5.83A10.86,10.86,0,0,1,54.8,53Z"/><path class="cls-4" d="M86.31,55.58A7.93,7.93,0,0,0,81,53.47a8.64,8.64,0,0,0-5.37,1.59A12.54,12.54,0,0,0,68.5,53.6l-.76.11a12.42,12.42,0,0,0-2.43-3.3l1.18,8.21a3.54,3.54,0,0,1,.47-.07,5.35,5.35,0,0,1,4.37,1.62,5.35,5.35,0,0,1,9.3,3.09c0,.12,0,.24,0,.35l.35,0a5.15,5.15,0,0,1,3.38.86A49.46,49.46,0,0,0,86.31,55.58Z"/><polygon class="cls-5" points="51.34 36.08 63.55 38.12 47.28 0 51.34 36.08"/><polygon class="cls-5" points="43.22 36.08 31 38.12 47.28 0 43.22 36.08"/><polygon class="cls-6" points="47.28 0 51.34 35.94 47.28 43.97 47.28 0"/><polygon class="cls-7" points="47.28 0 43.22 35.94 47.28 43.97 47.28 0"/><text class="cls-8" transform="translate(35.26 96.2)">P<tspan class="cls-9" x="23.72" y="0">L</tspan><tspan x="44.54" y="0">ANES</tspan></text></g></g></svg>