<svg xmlns="http://www.w3.org/2000/svg" viewBox="0 0 246.5 213.92"><defs><style>.cls-1{font-size:46px;font-family:Arial-Black, Arial Black;}.cls-1,.cls-3{fill:#fff;}.cls-2{fill:#2b67ac;}.cls-4{fill:#ed1c24;}.cls-5{fill:#9f1d20;}.cls-6{fill:#7f1820;}</style></defs><title>logo_wht</title><g id="Layer_2" data-name="Layer 2"><g id="Layer_1-2" data-name="Layer 1"><text class="cls-1" transform="translate(34.41 144.61)">PLANES<tspan x="-7.65" y="55.2">CHANGE</tspan></text><path class="cls-2" d="M26.45,113.12c.24,0,.49,0,.73,0l7.4-52L39.11,93a17.66,17.66,0,0,1,10.34-4.62c.4,0,.79,0,1.17-.06l3.6-30.6,6.46,12.71,6.5-12.71,3.1,27.62a17.92,17.92,0,0,1,2.45-.43A17.68,17.68,0,0,1,83,87l3.72-26,4.7,32.85c.25-.05.5-.1.76-.13a8.58,8.58,0,0,1,7,2.6,8.57,8.57,0,0,1,14.9,4.95,5.43,5.43,0,0,1,0,.57,5.39,5.39,0,0,1,.56-.08,8.52,8.52,0,0,1,5.37,1.27,61.73,61.73,0,1,0-106.8,18A17.68,17.68,0,0,1,26.45,113.12Z"/><path class="cls-3" d="M13.23,121.14a17.71,17.71,0,0,1,13.22-8c.24,0,.49,0,.73,0L31.12,85.4a20.18,20.18,0,0,0-6,15.3,17.77,17.77,0,0,0-9.81,10,18.07,18.07,0,0,0-4.42-.15,17.5,17.5,0,0,0-3.87.81"/><path class="cls-3" d="M49.45,88.33c.4,0,.79,0,1.17-.06l.91-7.69a20.22,20.22,0,0,0-14.09.59L39.11,93A17.66,17.66,0,0,1,49.45,88.33Z"/><path class="cls-3" d="M72.73,84.86A17.68,17.68,0,0,1,83,87l1.42-9.93a20,20,0,0,0-10.89-2,19.82,19.82,0,0,0-4.33.9l1,9.34A17.92,17.92,0,0,1,72.73,84.86Z"/><path class="cls-3" d="M123.21,89s-2.75-3-8.45-3.39a13.81,13.81,0,0,0-8.59,2.55,20.11,20.11,0,0,0-11.5-2.33c-.41,0-.8.11-1.21.18a19.81,19.81,0,0,0-3.9-5.29L91.45,93.9c.25-.05.5-.1.76-.13a8.58,8.58,0,0,1,7,2.6,8.57,8.57,0,0,1,14.9,4.95,5.43,5.43,0,0,1,0,.57,5.39,5.39,0,0,1,.56-.08,8.16,8.16,0,0,1,5.42,1.37S122.81,94.59,123.21,89Z"/><polygon class="cls-4" points="67.18 57.79 86.75 61.06 60.69 0 67.18 57.79"/><polygon class="cls-4" points="54.19 57.79 34.62 61.06 60.69 0 54.19 57.79"/><polygon class="cls-5" points="60.69 0 67.18 57.56 60.69 70.42 60.69 0"/><polygon class="cls-6" points="60.69 0 54.19 57.56 60.69 70.42 60.69 0"/></g></g></svg>