<svg xmlns="http://www.w3.org/2000/svg" viewBox="0 0 77.07 90.27"><defs><style>.cls-1{fill:#fff;}.cls-2{fill:#2b67ac;}.cls-3{fill:#9abde4;}.cls-4{fill:#ed1c24;}.cls-5{fill:#9f1d20;}.cls-6{fill:#7f1820;}</style></defs><title>Asset 2</title><g id="Layer_2" data-name="Layer 2"><g id="Layer_1-2" data-name="Layer 1"><path class="cls-1" d="M8.25,75.64a11.12,11.12,0,0,1,8.26-5,3.62,3.62,0,0,1,.46,0l4.62-32.49L24.42,58a11.08,11.08,0,0,1,6.46-2.88l.73,0L33.85,36l4,7.93,4-7.93,1.94,17.24A10.86,10.86,0,0,1,45.41,53a11,11,0,0,1,6.43,1.34l2.32-16.21,2.94,20.5a3.54,3.54,0,0,1,.47-.07,5.34,5.34,0,0,1,4.37,1.62,5.31,5.31,0,0,1,3.46-1.74,5.37,5.37,0,0,1,5.85,4.83c0,.12,0,.24,0,.35l.35,0a5.42,5.42,0,0,1,3.35.8A38.6,38.6,0,0,1,8.25,75.64Z"/><path class="cls-2" d="M16.51,70.63a3.62,3.62,0,0,1,.46,0l4.62-32.49L24.42,58a11.08,11.08,0,0,1,6.46-2.88l.73,0L33.85,36l4,7.93,4-7.93,1.94,17.24A10.86,10.86,0,0,1,45.41,53a11,11,0,0,1,6.43,1.34l2.32-16.21,2.94,20.5a3.54,3.54,0,0,1,.47-.07,5.34,5.34,0,0,1,4.37,1.62,5.31,5.31,0,0,1,3.46-1.74,5.37,5.37,0,0,1,5.85,4.83c0,.12,0,.24,0,.35l.35,0a5.42,5.42,0,0,1,3.35.8A38.54,38.54,0,1,0,8.28,75.62,11,11,0,0,1,16.51,70.63Z"/><path class="cls-3" d="M8.26,75.63a11.06,11.06,0,0,1,8.25-5,3.62,3.62,0,0,1,.46,0l2.46-17.29a12.54,12.54,0,0,0-3.74,9.55,11.08,11.08,0,0,0-6.13,6.27A11,11,0,0,0,6.8,69a11.48,11.48,0,0,0-2.44.5A41.85,41.85,0,0,0,8.26,75.63Z"/><path class="cls-3" d="M30.88,55.15l.73,0,.56-4.8a12.61,12.61,0,0,0-8.79.37l1,7.35A11.08,11.08,0,0,1,30.88,55.15Z"/><path class="cls-3" d="M45.41,53a11,11,0,0,1,6.43,1.34l.89-6.2a12.53,12.53,0,0,0-6.81-1.27,12.69,12.69,0,0,0-2.7.56l.66,5.83A10.86,10.86,0,0,1,45.41,53Z"/><path class="cls-3" d="M76.89,55.58a7.8,7.8,0,0,0-5.24-2.11,8.61,8.61,0,0,0-5.36,1.59,12.59,12.59,0,0,0-7.18-1.46l-.75.11a12.46,12.46,0,0,0-2.44-3.3l1.18,8.21a3.54,3.54,0,0,1,.47-.07,5.34,5.34,0,0,1,4.37,1.62,5.31,5.31,0,0,1,3.46-1.74,5.37,5.37,0,0,1,5.85,4.83c0,.12,0,.24,0,.35l.35,0a5.15,5.15,0,0,1,3.38.86A45.64,45.64,0,0,0,76.89,55.58Z"/><polygon class="cls-4" points="41.95 36.08 54.16 38.12 37.89 0 41.95 36.08"/><polygon class="cls-4" points="33.83 36.08 21.62 38.12 37.89 0 33.83 36.08"/><polygon class="cls-5" points="37.89 0 41.95 35.94 37.89 43.97 37.89 0"/><polygon class="cls-6" points="37.89 0 33.83 35.94 37.89 43.97 37.89 0"/></g></g></svg>